{"title":"Larry.Crowne.2011.BDRip.XVID.AC3.HQ.Hive-CM8","uid":6788969,"size":1556363371,"categoryP":"video","categoryS":"movies","magnet":"?xt=urn:btih:4e7942d66ad73146a093f0fa5aa9ba54fa59f30b&amp;dn=Larry.Crowne.2011.BDRip.XVID.AC3.HQ.Hive-CM8&amp;tr=udp%3A%2F%2Ftracker.openbittorrent.com%3A80&amp;tr=udp%3A%2F%2Fopen.demonii.com%3A1337&amp;tr=udp%3A%2F%2Ftracker.coppersurfer.tk%3A6969&amp;tr=udp%3A%2F%2Fexodus.desync.com%3A6969","seeders":2,"leechers":0,"uploader":"sceneline","files":6,"time":1320197672,"description":"- &lt;a href=&quot;\nhttp://www.Speed.Cd&quot; rel=&quot;nofollow&quot; target=&quot;_NEW&quot;&gt;\nhttp://www.Speed.Cd&lt;/a&gt;      fast  and The Hottest Private Tracker on the net\n\n   signup is open now\n\nPlease Seed back to make the speed Faster!!!\n\n------------------nfo--------------------------\n-[IMG]http://img412.imageshack.us/img412/9229/3ba50c4728.jpg[/IMG]\n\n\n[color=blue][size=5][b]Larry.Crowne.2011.BDRip.XVID.AC3.HQ.Hive-CM8[/b][/size][/color]\n\n\n[b]Thx Hive\n\nCM8 Doing It Right The First Time :D\n\n\nSource: Bluray\n\nVideo: 720x304 @bitrate 1700 2pass\nAudio: English DTS to AC3 5.1 @384\nSample: Yes, included\nSubs: Yes, english in srt /subs[/b]\n &lt;a href=&quot;\nhttp://www.imdb.com/title/tt1583420/&quot; rel=&quot;nofollow&quot; target=&quot;_NEW&quot;&gt;\nhttp://www.imdb.com/title/tt1583420/&lt;/a&gt;\n\n\nGeneral\nComplete name                  : Larry.Crowne.2011.BDRip.XVID.AC3.HQ.Hive-CM8.avi\nFormat                         : AVI\nFormat/Info                    : Audio Video Interleave\nFile size                      : 1.44 GiB\nDuration                       : 1h 38mn\nOverall bit rate               : 2 093 Kbps\nWriting application            : Nandub v1.0rc2\nWriting library                : Nandub build 1853/release\n\nVideo\nID                             : 0\nFormat                         : MPEG-4 Visual\nFormat profile                 : Advanced Simple@L5\nFormat settings, BVOP          : 1\nFormat settings, QPel          : Yes\nFormat settings, GMC           : No warppoints\nFormat settings, Matrix        : Default (H.263)\nMuxing mode                    : Packed bitstream\nCodec ID                       : XVID\nCodec ID/Hint                  : XviD\nDuration                       : 1h 38mn\nBit rate                       : 1 700 Kbps\nWidth                          : 720 pixels\nHeight                         : 304 pixels\nDisplay aspect ratio           : 2.40:1\nFrame rate                     : 23.976 fps\nColor space                    : YUV\nChroma subsampling             : 4:2:0\nBit depth                      : 8 bits\nScan type                      : Progressive\nCompression mode               : Lossy\nBits/(Pixel*Frame)             : 0.324\nStream size                    : 1.17 GiB (81%)\nWriting library                : XviD 1.2.1 (UTC 2008-12-04)\n\nAudio\nID                             : 1\nFormat                         : AC-3\nFormat/Info                    : Audio Coding 3\nMode extension                 : CM (complete main)\nCodec ID                       : 2000\nDuration                       : 1h 38mn\nBit rate mode                  : Constant\nBit rate                       : 384 Kbps\nChannel(s)                     : 6 channels\nChannel positions              : Front: L C R, Side: L R, LFE\nSampling rate                  : 48.0 KHz\nBit depth                      : 16 bits\nCompression mode               : Lossy\nStream size                    : 271 MiB (18%)\nAlignment                      : Split accross interleaves\nInterleave, duration           : 42 ms (1.00 video frame)\nInterleave, preload duration   : 500 ms\n\n\nPlot:\nAfter losing his job, a middle-aged man reinvents himself by going back to college. \n\n\nCast:\nTom Hanks       ...     Larry Crowne\nJulia Roberts   ...     Mercedes Tainot\nSarah Mahoney   ...     Samantha\nRoxana Ortega   ...     Alvarez\n\n\n[img]http://img850.imageshack.us/img850/4294/22444419.png[/img]\n[img]http://img511.imageshack.us/img511/2250/lalalt.png[/img]\n[img]http://img843.imageshack.us/img843/6506/lalalaef.png[/img]\n[img]http://img263.imageshack.us/img263/620/lalallaa.png[/img]\n[img]http://img521.imageshack.us/img521/6200/lalallalaa.png[/img]\n[img]http://img534.imageshack.us/img534/1016/lalallalalaa.png[/img]\n\n\n\nGreetz\n\nViSiON,SPK,SANTi,3LT0N,FUSiON,YanKeeS,MAGNET,T0XiC,LKRG,FANTASIA-PLAY,FANTASIA-M,FLAWL3SS,\nWBZ,BHRG,NOVA,D2U,THC,Vik,Rapeseed,SAFC,goldadvance,MEMORY100,KaN1vE,Unevano,Pinnz,Wayne,\nMr Hive,and all P2P groups\nGreat Work Guys :D\n\nLOOKING FOR ANYTHING YOU WANT TO LOOK AND SOUND BETTER\n\n&lt;a class=&quot;__cf_email__&quot; href=&quot;/cdn-cgi/l/email-protection&quot; data-cfemail=&quot;7437394c341c01071c19151d185a171b19&quot;&gt;[email&amp;#160;protected]&lt;/a&gt;&lt;script cf-hash='f9e31' type=&quot;text/javascript&quot;&gt;\n/* &lt;![CDATA[ */!function(){try{var t=&quot;currentScript&quot;in document?document.currentScript:function(){for(var t=document.getElementsByTagName(&quot;script&quot;),e=t.length;e--;)if(t[e].getAttribute(&quot;cf-hash&quot;))return t[e]}();if(t&amp;&amp;t.previousSibling){var e,r,n,i,c=t.previousSibling,a=c.getAttribute(&quot;data-cfemail&quot;);if(a){for(e=&quot;&quot;,r=parseInt(a.substr(0,2),16),n=2;a.length-n;n+=2)i=parseInt(a.substr(n,2),16)^r,e+=String.fromCharCode(i);e=document.createTextNode(e),c.parentNode.replaceChild(e,c)}}}catch(u){}}();/* ]]&gt; */&lt;/script&gt;","torrent":{"xt":"urn:btih:4e7942d66ad73146a093f0fa5aa9ba54fa59f30b","amp;dn":"Larry.Crowne.2011.BDRip.XVID.AC3.HQ.Hive-CM8","amp;tr":["udp%3A%2F%2Ftracker.openbittorrent.com%3A80","udp%3A%2F%2Fopen.demonii.com%3A1337","udp%3A%2F%2Ftracker.coppersurfer.tk%3A6969","udp%3A%2F%2Fexodus.desync.com%3A6969"],"infoHash":"4e7942d66ad73146a093f0fa5aa9ba54fa59f30b","infoHashBuffer":{"type":"Buffer","data":[78,121,66,214,106,215,49,70,160,147,240,250,90,169,186,84,250,89,243,11]},"announce":[],"urlList":[]}}